<?xml version="1.0" standalone="no"?>
<!DOCTYPE svg PUBLIC "-//W3C//DTD SVG 20010904//EN"
 "http://www.w3.org/TR/2001/REC-SVG-20010904/DTD/svg10.dtd">
<svg version="1.0" xmlns="http://www.w3.org/2000/svg"
 width="982.000000pt" height="982.000000pt" viewBox="0 0 982.000000 982.000000"
 preserveAspectRatio="xMidYMid meet">
<metadata>
Created by potrace 1.11, written by Peter Selinger 2001-2013
</metadata>
<g transform="translate(0.000000,982.000000) scale(0.100000,-0.100000)"
fill="#000000" stroke="none">
<path d="M4658 9816 c-1 -2 -50 -6 -108 -10 -58 -4 -123 -9 -145 -12 -174 -21
-221 -27 -285 -38 -197 -34 -342 -66 -510 -112 -136 -38 -427 -134 -493 -163
-23 -10 -89 -38 -147 -62 -233 -97 -564 -277 -795 -432 -82 -55 -292 -208
-340 -248 -204 -171 -441 -395 -565 -534 -157 -176 -268 -317 -390 -491 -44
-63 -80 -116 -80 -118 0 -2 -22 -37 -50 -79 -27 -42 -61 -95 -74 -119 -13 -24
-42 -77 -66 -118 -66 -119 -183 -362 -245 -515 -122 -297 -251 -743 -290
-1000 -2 -17 -11 -73 -20 -125 -8 -52 -17 -122 -21 -155 -3 -33 -7 -71 -9 -83
-26 -159 -26 -824 0 -983 2 -13 6 -51 9 -84 3 -33 8 -71 10 -85 3 -14 7 -43
10 -65 27 -187 78 -419 143 -650 34 -122 131 -402 163 -470 5 -11 15 -36 23
-55 33 -82 86 -195 163 -345 373 -731 946 -1376 1630 -1832 215 -143 344 -217
589 -337 147 -71 226 -106 455 -196 147 -58 605 -186 735 -205 22 -4 56 -10
75 -15 19 -5 55 -11 80 -14 25 -3 54 -8 65 -10 22 -4 176 -24 240 -31 251 -27
735 -27 995 0 43 5 74 8 170 21 271 35 649 125 935 224 107 37 358 136 403
159 9 5 79 39 156 76 378 183 767 443 1095 733 83 73 335 323 391 387 135 155
264 314 320 396 223 321 296 444 443 744 78 158 217 488 217 514 0 6 4 19 9
29 9 15 21 52 74 227 16 50 56 204 63 238 2 10 6 27 9 37 3 10 8 29 10 42 3
13 9 46 15 73 5 28 11 61 14 75 2 14 7 36 10 50 3 14 8 41 10 60 3 19 12 82
20 140 9 58 18 134 22 170 3 36 8 83 10 105 7 74 10 539 4 600 -6 50 -7 53 -8
19 -2 -39 -5 -42 -55 -67 -74 -36 -339 -163 -422 -202 -38 -18 -133 -63 -210
-100 -77 -37 -223 -107 -325 -155 -102 -48 -243 -116 -315 -150 -71 -34 -170
-82 -220 -105 -49 -23 -142 -67 -205 -98 -63 -30 -171 -81 -240 -114 l-125
-59 -29 -90 c-73 -221 -153 -392 -301 -640 -41 -68 -148 -214 -224 -305 -354
-421 -780 -712 -1316 -897 -62 -21 -231 -68 -275 -76 -14 -2 -36 -7 -50 -10
-14 -3 -36 -8 -50 -10 -14 -3 -34 -7 -45 -9 -12 -3 -48 -8 -80 -12 -33 -4 -69
-9 -80 -11 -118 -22 -485 -21 -655 1 -19 2 -55 7 -80 10 -25 3 -67 10 -95 15
-27 6 -61 13 -75 15 -14 3 -38 8 -55 10 -58 11 -319 88 -375 112 -8 3 -19 7
-25 9 -48 11 -295 130 -410 197 -67 38 -234 146 -245 157 -3 3 -39 30 -80 61
-187 141 -387 343 -536 544 -41 55 -79 106 -86 113 -29 37 -147 240 -198 342
-106 212 -217 531 -246 705 -2 11 -5 31 -8 45 -6 32 -16 96 -22 140 -3 19 -7
45 -9 58 -22 125 -23 548 -1 668 2 10 7 45 11 78 9 73 10 82 45 242 54 252
181 577 311 795 18 30 37 63 43 74 30 55 134 202 212 299 139 173 289 319 517
502 28 23 186 128 257 171 126 77 314 165 500 237 141 53 411 121 565 140 28
4 66 9 85 11 299 38 661 17 980 -56 96 -22 290 -78 305 -88 6 -4 28 -13 50
-20 42 -13 56 -18 116 -45 l37 -16 177 85 c97 47 209 101 248 119 40 19 131
62 202 96 72 34 157 75 190 90 33 15 141 67 240 115 99 48 205 98 235 112 30
14 116 55 190 90 74 36 178 86 230 110 52 25 151 72 220 105 172 83 169 82
191 62 11 -10 19 -14 19 -11 0 12 -182 169 -300 260 -379 292 -796 526 -1257
706 -57 22 -103 37 -103 34 0 -3 -6 -1 -12 4 -25 20 -465 148 -568 167 -14 2
-59 11 -100 19 -41 9 -91 19 -110 22 -19 3 -46 7 -60 10 -33 6 -73 12 -135 20
-27 4 -61 8 -75 10 -14 2 -61 7 -105 11 -44 3 -91 8 -105 11 -29 4 -617 13
-622 9z"/>
<path d="M4688 6404 c-133 -20 -280 -62 -382 -109 -30 -14 -57 -25 -59 -25 -6
0 -127 -72 -182 -108 -342 -225 -593 -626 -652 -1042 -13 -89 -9 -388 6 -460
17 -84 17 -85 36 -155 39 -147 126 -332 221 -466 60 -86 227 -262 303 -320
185 -141 405 -242 634 -290 81 -17 139 -22 277 -23 195 -1 255 5 395 40 584
147 1048 668 1122 1259 10 74 10 332 1 400 -8 61 -38 207 -45 218 -2 4 -6 18
-9 31 -2 13 -20 63 -40 112 -175 436 -538 766 -985 895 -94 27 -120 32 -239
49 -88 12 -307 9 -402 -6z"/>
</g>
</svg>
