<?xml version="1.0" encoding="UTF-8" standalone="no"?>
<svg
   xmlns:dc="http://purl.org/dc/elements/1.1/"
   xmlns:cc="http://creativecommons.org/ns#"
   xmlns:rdf="http://www.w3.org/1999/02/22-rdf-syntax-ns#"
   xmlns:svg="http://www.w3.org/2000/svg"
   xmlns="http://www.w3.org/2000/svg"
   id="svg2002"
   version="1.1"
   viewBox="0 0 66.555046 7.7447906"
   height="7.7447906mm"
   width="66.555046mm">
  <defs
     id="defs1996" />
  <metadata
     id="metadata1999">
    <rdf:RDF>
      <cc:Work
         rdf:about="">
        <dc:format>image/svg+xml</dc:format>
        <dc:type
           rdf:resource="http://purl.org/dc/dcmitype/StillImage" />
        <dc:title></dc:title>
      </cc:Work>
    </rdf:RDF>
  </metadata>
  <g
     transform="translate(-65.807311,-128.18592)"
     id="layer1">
    <g
       transform="matrix(0.15517633,0,0,0.15517633,54.195698,112.01288)"
       id="layer1-6"
       style="opacity:0.88999999">
      <g
         id="g1240"
         transform="translate(94.541443,-90.877306)">
        <path
           transform="matrix(0.26458333,0,0,0.26458333,-94.541443,90.877306)"
           id="path1933"
           d="m 377.13477,393.91602 a 94.317756,94.317756 0 0 0 -94.31836,94.31836 94.317756,94.317756 0 0 0 94.31836,94.3164 94.317756,94.317756 0 0 0 94.31835,-94.3164 94.317756,94.317756 0 0 0 -0.30468,-6.10352 74.940306,74.940306 0 0 1 -0.12305,2.43945 l -40.58984,19.34961 a 55.596568,55.596568 0 0 1 -53.30078,39.91016 55.596568,55.596568 0 0 1 -55.59571,-55.5957 55.596568,55.596568 0 0 1 55.59571,-55.59766 55.596568,55.596568 0 0 1 22.23437,4.66992 l 40.34766,-19.23437 a 74.940306,74.940306 0 0 1 1.93554,1.45117 94.317756,94.317756 0 0 0 -64.51757,-25.60742 z"
           style="opacity:1;fill:#edf6ff;fill-opacity:1;stroke:#2d3436;stroke-width:0;stroke-miterlimit:4;stroke-dasharray:none;stroke-opacity:1" />
        <circle
           style="opacity:1;fill:#0984e3;fill-opacity:1;stroke:none;stroke-width:15.26071072;stroke-miterlimit:4;stroke-dasharray:none;stroke-opacity:1"
           id="path821"
           cx="5.2421288"
           cy="-220.05588"
           r="7.6802082"
           transform="scale(1,-1)" />
      </g>
    </g>
    <g
       transform="translate(0,0.10470794)"
       id="text2102"
       style="font-style:normal;font-weight:normal;font-size:5.64444446999999982px;line-height:1.25;font-family:sans-serif;letter-spacing:0px;word-spacing:0px;fill:#edf6ff;fill-opacity:1;stroke:none;stroke-width:0.26458332"
       aria-label="MonoMotion">
      <g
         aria-label="MonoMotion"
         style="font-style:normal;font-weight:normal;font-size:5.64444446999999982px;line-height:1.25;font-family:sans-serif;letter-spacing:0px;word-spacing:0px;opacity:0.88999999;fill:#edf6ff;fill-opacity:1;stroke:none;stroke-width:0.07000434"
         id="text2729">
        <path
           d="m 83.929768,135.46022 v -6.91444 h -1.1557 l -1.787878,4.05976 c -0.06914,0.16792 -0.138289,0.3556 -0.187678,0.51365 -0.04939,-0.15805 -0.118533,-0.34573 -0.187678,-0.51365 l -1.778,-4.05976 h -1.195211 v 6.91444 h 1.185333 v -3.67453 c 0,-0.24695 -0.01976,-0.64206 -0.03951,-0.82974 0.0889,0.2667 0.217311,0.59267 0.325967,0.82974 l 1.679222,3.79306 1.679222,-3.77331 c 0.09878,-0.24694 0.227189,-0.58279 0.316089,-0.84949 -0.01976,0.18768 -0.03951,0.58279 -0.03951,0.82974 v 3.67453 z"
           style="font-style:normal;font-variant:normal;font-weight:bold;font-stretch:normal;font-size:9.87777804999999987px;font-family:Overpass;-inkscape-font-specification:'Overpass Bold';fill:#edf6ff;fill-opacity:1;stroke-width:0.07000434"
           id="path3394" />
        <path
           d="m 87.571118,135.57875 c 1.4224,0 2.321277,-0.9779 2.321277,-2.63736 0,-1.64959 -0.898877,-2.64725 -2.321277,-2.64725 -1.412523,0 -2.3114,0.99766 -2.3114,2.64725 0,1.65946 0.898877,2.63736 2.3114,2.63736 z m 0,-1.10631 c -0.701323,0 -1.1557,-0.57291 -1.1557,-1.53105 0,-0.95815 0.454377,-1.55081 1.1557,-1.55081 0.721077,0 1.165577,0.59266 1.165577,1.55081 0,0.95814 -0.4445,1.53105 -1.165577,1.53105 z"
           style="font-style:normal;font-variant:normal;font-weight:bold;font-stretch:normal;font-size:9.87777804999999987px;font-family:Overpass;-inkscape-font-specification:'Overpass Bold';fill:#edf6ff;fill-opacity:1;stroke-width:0.07000434"
           id="path3396" />
        <path
           d="m 94.242167,135.46022 h 1.1557 v -3.10162 c 0,-1.54094 -0.829733,-2.06446 -1.787877,-2.06446 -0.572911,0 -1.007534,0.19756 -1.3335,0.59267 v -0.47413 h -1.1557 v 5.04754 h 1.1557 v -2.91394 c 0,-0.82974 0.404989,-1.1557 1.027289,-1.1557 0.582788,0 0.938388,0.34572 0.938388,1.17545 z"
           style="font-style:normal;font-variant:normal;font-weight:bold;font-stretch:normal;font-size:9.87777804999999987px;font-family:Overpass;-inkscape-font-specification:'Overpass Bold';fill:#edf6ff;fill-opacity:1;stroke-width:0.07000434"
           id="path3398" />
        <path
           d="m 98.895835,135.57875 c 1.422395,0 2.321275,-0.9779 2.321275,-2.63736 0,-1.64959 -0.89888,-2.64725 -2.321275,-2.64725 -1.412523,0 -2.3114,0.99766 -2.3114,2.64725 0,1.65946 0.898877,2.63736 2.3114,2.63736 z m 0,-1.10631 c -0.701323,0 -1.1557,-0.57291 -1.1557,-1.53105 0,-0.95815 0.454377,-1.55081 1.1557,-1.55081 0.721077,0 1.165575,0.59266 1.165575,1.55081 0,0.95814 -0.444498,1.53105 -1.165575,1.53105 z"
           style="font-style:normal;font-variant:normal;font-weight:bold;font-stretch:normal;font-size:9.87777804999999987px;font-family:Overpass;-inkscape-font-specification:'Overpass Bold';fill:#edf6ff;fill-opacity:1;stroke-width:0.07000434"
           id="path3400" />
        <path
           d="m 108.83643,135.46022 v -6.91444 h -1.1557 l -1.78788,4.05976 c -0.0691,0.16792 -0.13829,0.3556 -0.18768,0.51365 -0.0494,-0.15805 -0.11853,-0.34573 -0.18767,-0.51365 l -1.778,-4.05976 h -1.19522 v 6.91444 h 1.18534 v -3.67453 c 0,-0.24695 -0.0198,-0.64206 -0.0395,-0.82974 0.0889,0.2667 0.21731,0.59267 0.32596,0.82974 l 1.67923,3.79306 1.67922,-3.77331 c 0.0988,-0.24694 0.22719,-0.58279 0.31609,-0.84949 -0.0198,0.18768 -0.0395,0.58279 -0.0395,0.82974 v 3.67453 z"
           style="font-style:normal;font-variant:normal;font-weight:bold;font-stretch:normal;font-size:9.87777804999999987px;font-family:Overpass;-inkscape-font-specification:'Overpass Bold';fill:#edf6ff;fill-opacity:1;stroke-width:0.07000434"
           id="path3402" />
        <path
           d="m 112.47778,135.57875 c 1.4224,0 2.32128,-0.9779 2.32128,-2.63736 0,-1.64959 -0.89888,-2.64725 -2.32128,-2.64725 -1.41252,0 -2.3114,0.99766 -2.3114,2.64725 0,1.65946 0.89888,2.63736 2.3114,2.63736 z m 0,-1.10631 c -0.70132,0 -1.1557,-0.57291 -1.1557,-1.53105 0,-0.95815 0.45438,-1.55081 1.1557,-1.55081 0.72108,0 1.16558,0.59266 1.16558,1.55081 0,0.95814 -0.4445,1.53105 -1.16558,1.53105 z"
           style="font-style:normal;font-variant:normal;font-weight:bold;font-stretch:normal;font-size:9.87777804999999987px;font-family:Overpass;-inkscape-font-specification:'Overpass Bold';fill:#edf6ff;fill-opacity:1;stroke-width:0.07000434"
           id="path3404" />
        <path
           d="m 117.47054,135.57875 c 0.41486,0 0.77046,-0.079 1.05692,-0.22719 l 0.13829,-1.03716 c -0.2667,0.14816 -0.5334,0.22719 -0.79023,0.22719 -0.30621,0 -0.42474,-0.19756 -0.42474,-0.48401 v -2.63737 h 1.16558 v -1.00753 h -1.16558 v -2.08422 l -1.1557,0.55316 v 1.53106 h -0.75071 v 1.00753 h 0.75071 v 2.86455 c 0,0.8001 0.34572,1.29399 1.17546,1.29399 z"
           style="font-style:normal;font-variant:normal;font-weight:bold;font-stretch:normal;font-size:9.87777804999999987px;font-family:Overpass;-inkscape-font-specification:'Overpass Bold';fill:#edf6ff;fill-opacity:1;stroke-width:0.07000434"
           id="path3406" />
        <path
           d="m 120.40146,129.72123 c 0.38523,0 0.68156,-0.30621 0.68156,-0.69144 0,-0.37536 -0.29633,-0.68157 -0.68156,-0.68157 -0.38524,0 -0.69145,0.30621 -0.69145,0.68157 0,0.38523 0.30621,0.69144 0.69145,0.69144 z m -0.58279,5.73899 h 1.1557 v -5.04754 h -1.1557 z"
           style="font-style:normal;font-variant:normal;font-weight:bold;font-stretch:normal;font-size:9.87777804999999987px;font-family:Overpass;-inkscape-font-specification:'Overpass Bold';fill:#edf6ff;fill-opacity:1;stroke-width:0.07000434"
           id="path3408" />
        <path
           d="m 124.53562,135.57875 c 1.4224,0 2.32127,-0.9779 2.32127,-2.63736 0,-1.64959 -0.89887,-2.64725 -2.32127,-2.64725 -1.41253,0 -2.3114,0.99766 -2.3114,2.64725 0,1.65946 0.89887,2.63736 2.3114,2.63736 z m 0,-1.10631 c -0.70133,0 -1.1557,-0.57291 -1.1557,-1.53105 0,-0.95815 0.45437,-1.55081 1.1557,-1.55081 0.72107,0 1.16557,0.59266 1.16557,1.55081 0,0.95814 -0.4445,1.53105 -1.16557,1.53105 z"
           style="font-style:normal;font-variant:normal;font-weight:bold;font-stretch:normal;font-size:9.87777804999999987px;font-family:Overpass;-inkscape-font-specification:'Overpass Bold';fill:#edf6ff;fill-opacity:1;stroke-width:0.07000434"
           id="path3410" />
        <path
           d="m 131.20666,135.46022 h 1.1557 v -3.10162 c 0,-1.54094 -0.82973,-2.06446 -1.78787,-2.06446 -0.57292,0 -1.00754,0.19756 -1.3335,0.59267 v -0.47413 h -1.1557 v 5.04754 h 1.1557 v -2.91394 c 0,-0.82974 0.40498,-1.1557 1.02728,-1.1557 0.58279,0 0.93839,0.34572 0.93839,1.17545 z"
           style="font-style:normal;font-variant:normal;font-weight:bold;font-stretch:normal;font-size:9.87777804999999987px;font-family:Overpass;-inkscape-font-specification:'Overpass Bold';fill:#edf6ff;fill-opacity:1;stroke-width:0.07000434"
           id="path3412" />
      </g>
    </g>
  </g>
</svg>
